<svg version="1.1" viewBox="0.0 0.0 386.13385826771656 159.85826771653544" fill="none" stroke="none" stroke-linecap="square" stroke-miterlimit="10" xmlns:xlink="http://www.w3.org/1999/xlink" xmlns="http://www.w3.org/2000/svg"><clipPath id="p.0"><path d="m0 0l386.13385 0l0 159.85826l-386.13385 0l0 -159.85826z" clip-rule="nonzero"/></clipPath><g clip-path="url(#p.0)"><path fill="#000000" fill-opacity="0.0" d="m0 0l386.13385 0l0 159.85826l-386.13385 0z" fill-rule="evenodd"/><path fill="#ffffff" d="m16.365108 12.052434l0 21.351986l70.339615 0l-35.169807 36.99949l0 17.432144l14.147118 0c11.351295 0 19.786766 1.7952652 25.30642 5.385803c5.5436554 3.5905228 8.315483 8.583275 8.315483 14.978256c0 6.394966 -2.9158173 11.451454 -8.747459 15.169472c-5.8076324 3.7180023 -13.799133 5.577011 -23.974503 5.577011c-8.567463 0 -16.870945 -1.2003784 -24.910442 -3.6011581c-8.015503 -2.4220123 -14.831074 -5.7257233 -20.446722 -9.91114l-12.383226 19.79042c7.223551 4.9502716 15.959009 8.827606 26.206364 11.63205c10.24736 2.8044434 20.902699 4.206665 31.966003 4.206665c13.271172 0 24.514465 -1.9227448 33.72989 -5.768219c9.215431 -3.8454895 16.102997 -9.029449 20.662712 -15.551895c4.5837173 -6.5224457 6.875572 -13.767258 6.875572 -21.73442c0 -10.580383 -3.7677689 -19.38675 -11.303291 -26.419098c-7.5115356 -7.053589 -18.418854 -11.36647 -32.721962 -12.938667l37.617653 -39.548973l0 -17.04972z" fill-rule="evenodd"/><path fill="#ffffff" d="m211.64595 32.22528c11.063309 0 19.798767 4.0473175 26.20636 12.1419525c6.43161 8.094631 9.6474 20.172844 9.6474 36.234642c0 16.04055 -3.2157898 28.108131 -9.6474 36.202766c-6.407593 8.094635 -15.143051 12.1419525 -26.20636 12.1419525c-10.895309 0 -19.558777 -4.0473175 -25.990372 -12.1419525c-6.407608 -8.094635 -9.611404 -20.162216 -9.611404 -36.202766c0 -16.061798 3.2037964 -28.14001 9.611404 -36.234642c6.431595 -8.094635 15.095047 -12.1419525 25.990372 -12.1419525zm0 -22.116833c-12.3832245 0 -23.446533 2.7725716 -33.189926 8.317714c-9.719391 5.545143 -17.386917 13.639776 -23.002563 24.283903c-5.5916443 10.622875 -8.387482 23.253475 -8.387482 37.89181c0 14.617073 2.7958374 27.24768 8.387482 37.891808c5.6156464 10.622879 13.283173 18.706894 23.002563 24.25203c9.743393 5.5451508 20.806702 8.3177185 33.189926 8.3177185c12.3832245 0 23.482529 -2.7725677 33.297928 -8.3177185c9.815384 -5.5451355 17.51889 -13.62915 23.110565 -24.25203c5.615631 -10.644127 8.423462 -23.274734 8.423462 -37.891808c0 -14.638329 -2.8078308 -27.268929 -8.423462 -37.89181c-5.591675 -10.644127 -13.295181 -18.73876 -23.110565 -24.283903c-9.815399 -5.545142 -20.914703 -8.317714 -33.297928 -8.317714z" fill-rule="evenodd"/><path fill="#ffffff" d="m308.72565 24.444263c2.8649292 0 5.0818176 0.8739815 6.650696 2.6219368c1.5689087 1.7390862 2.3533325 4.192436 2.3533325 7.360054c0 3.1587448 -0.7844238 5.612095 -2.3533325 7.360054c-1.5688782 1.7390862 -3.7857666 2.6086273 -6.650696 2.6086273c-2.7285156 0 -4.916992 -0.88285065 -6.56546 -2.6485558c-1.6371155 -1.7745743 -2.455658 -4.214615 -2.455658 -7.3201256c0 -3.105507 0.8185425 -5.5455475 2.455658 -7.3201256c1.648468 -1.7745762 3.8369446 -2.6618633 6.56546 -2.6618652zm0 -5.723007c-5.2409973 0 -9.470184 1.4462795 -12.6875305 4.3388386c-3.2059937 2.883688 -4.8089905 6.672407 -4.8089905 11.366159c0 4.6848793 1.6029968 8.473602 4.8089905 11.366158c3.2173462 2.8836899 7.446533 4.325531 12.6875305 4.325531c5.2409973 0 9.481537 -1.4285316 12.721619 -4.2856026c3.2514648 -2.8659363 4.8771973 -6.6679688 4.8771973 -11.406086c0 -4.746992 -1.6257324 -8.549023 -4.8771973 -11.406088c-3.2400818 -2.86594 -7.4806213 -4.29891 -12.721619 -4.29891zm48.089813 32.71431c2.7967224 0 4.9965515 0.88728714 6.5995483 2.6618614c1.6029968 1.7657013 2.4045105 4.201309 2.4045105 7.30682c0 3.114376 -0.8015137 5.558857 -2.4045105 7.3334312c-1.6029968 1.7657013 -3.802826 2.6485596 -6.5995483 2.6485596c-2.7967224 0 -4.996582 -0.869545 -6.599579 -2.6086273c-1.6029663 -1.747963 -2.40448 -4.2057495 -2.40448 -7.3733635c0 -3.1587486 0.8015137 -5.607662 2.40448 -7.3467445c1.6029968 -1.7479591 3.8028564 -2.6219368 6.599579 -2.6219368zm-4.092743 -32.142006l-50.085052 57.243385l10.283051 0l50.067963 -57.243385zm4.092743 26.419c-5.2409973 0 -9.470184 1.4462776 -12.6875305 4.3388367c-3.2059937 2.8836823 -4.8089905 6.6679688 -4.8089905 11.352852c0 4.6937523 1.6029968 8.486904 4.8089905 11.379467c3.2173462 2.8836823 7.446533 4.325531 12.6875305 4.325531c5.2409973 0 9.481537 -1.4418488 12.721619 -4.325531c3.2514648 -2.8925629 4.8771973 -6.6857147 4.8771973 -11.379467c0 -4.684883 -1.6257324 -8.46917 -4.8771973 -11.352852c-3.2400818 -2.892559 -7.4806213 -4.3388367 -12.721619 -4.3388367z" fill-rule="evenodd"/><path fill="#ffffff" d="m303.51962 97.1677c2.126831 0 4.040985 0.6155777 5.742462 1.8467407c1.7014465 1.224823 3.0368958 2.941475 4.0063477 5.1499557c0.97439575 2.2021332 1.4615784 4.667633 1.4615784 7.3965073c0 2.7288666 -0.48718262 5.1943665 -1.4615784 7.3965073c-0.9694519 2.2021332 -2.3049011 3.918785 -4.0063477 5.149948c-1.701477 1.2248154 -3.615631 1.8372269 -5.742462 1.8372269c-2.126831 0 -4.043457 -0.6124115 -5.749878 -1.8372269c-1.701477 -1.2311707 -3.0393982 -2.9478226 -4.0137634 -5.149948c-0.9694519 -2.2021408 -1.4541626 -4.6676407 -1.4541626 -7.3965073c0 -2.7288742 0.4847107 -5.194374 1.4541626 -7.3965073c0.97436523 -2.2084808 2.312317 -3.9251328 4.0137634 -5.1499557c1.7064209 -1.231163 3.6230469 -1.8467407 5.749878 -1.8467407zm0 -6.663521c-3.254547 0 -6.1900635 0.90750885 -8.80658 2.722519c-2.6115417 1.80867 -4.6617126 4.3217697 -6.1505127 7.539299c-1.4887695 3.2175293 -2.2331543 6.8158264 -2.2331543 10.794907c0 3.972725 0.74438477 7.567848 2.2331543 10.7853775c1.4888 3.2175293 3.538971 5.7338104 6.1505127 7.548813c2.6164856 1.80867 5.5520325 2.7130127 8.80658 2.7130127c3.2496033 0 6.180176 -0.90434265 8.791748 -2.7130127c2.6164856 -1.8150024 4.6691284 -4.321762 6.157898 -7.520256c1.4888 -3.1984863 2.2331848 -6.803131 2.2331848 -10.813934c0 -4.017151 -0.74438477 -7.624977 -2.2331848 -10.823463c-1.4887695 -3.1984863 -3.5414124 -5.702072 -6.157898 -7.510742c-2.6115723 -1.8150101 -5.542145 -2.722519 -8.791748 -2.722519z" fill-rule="evenodd"/><path fill="#ffffff" d="m326.99576 91.084854l0 40.94258l5.9205017 0l0 -15.678314l15.409668 0l0 -6.4255447l-15.409668 0l0 -12.460777l17.368317 0l0 -6.377945z" fill-rule="evenodd"/><path fill="#ffffff" d="m356.03244 91.084854l0 40.94258l5.9205017 0l0 -15.678314l15.409637 0l0 -6.4255447l-15.409637 0l0 -12.460777l17.368317 0l0 -6.377945z" fill-rule="evenodd"/></g></svg>