<svg version="1.1" viewBox="0.0 0.0 846.0 100.0" fill="none" stroke="none" stroke-linecap="square" stroke-miterlimit="10" xmlns:xlink="http://www.w3.org/1999/xlink" xmlns="http://www.w3.org/2000/svg"><clipPath id="p.0"><path d="m0 0l846.0 0l0 100.0l-846.0 0l0 -100.0z" clip-rule="nonzero"/></clipPath><g clip-path="url(#p.0)"><path fill="#000000" fill-opacity="0.0" d="m0 0l846.0 0l0 100.0l-846.0 0z" fill-rule="evenodd"/><path fill="#000000" fill-opacity="0.0" d="m691.4517 49.3327l142.55646 0" fill-rule="evenodd"/><path stroke="#ffffff" stroke-width="4.0" stroke-linejoin="round" stroke-linecap="butt" d="m691.4517 49.3327l142.55646 0" fill-rule="evenodd"/><path fill="#000000" fill-opacity="0.0" d="m802.96094 11.464699l31.047241 37.868" fill-rule="evenodd"/><path stroke="#ffffff" stroke-width="4.0" stroke-linejoin="round" stroke-linecap="butt" d="m802.96094 11.464699l31.047241 37.868" fill-rule="evenodd"/><path fill="#000000" fill-opacity="0.0" d="m802.96094 87.2007l31.047241 -37.868" fill-rule="evenodd"/><path stroke="#ffffff" stroke-width="4.0" stroke-linejoin="round" stroke-linecap="butt" d="m802.96094 87.2007l31.047241 -37.868" fill-rule="evenodd"/><path fill="#ffffff" d="m35.915646 11.464566c-5.4010105 0 -9.927425 0.80238724 -13.579245 2.4071598c-3.6416016 1.6047716 -6.342106 3.7461405 -8.101516 6.4241056c-1.7594109 2.6779652 -2.6391306 5.6518097 -2.6391306 8.921534c0 4.0019035 1.0535965 7.176342 3.160819 9.523323c2.1072226 2.3369484 4.6338205 4.0771255 7.5798273 5.2205276c2.9562244 1.1433983 6.920044 2.3269196 11.891428 3.55056c4.1428223 0.99295044 7.3752327 1.9056664 9.697269 2.738144c2.3322525 0.83247757 4.296257 2.0210114 5.8920097 3.5656013c1.6059723 1.534565 2.4089737 3.5956955 2.4089737 6.1833916c0 3.3900833 -1.4781265 6.1482887 -4.434353 8.274609c-2.946003 2.1263275 -7.3752327 3.1894836 -13.287712 3.1894836c-4.204195 0 -8.290766 -0.7221451 -12.25968 -2.1664429c-3.9586945 -1.4543228 -7.129732 -3.3499603 -9.513143 -5.6869125l-2.7311926 5.265663c2.444785 2.5275192 5.9124794 4.5635757 10.403082 6.108162c4.5008526 1.5345688 9.201174 2.3018494 14.100933 2.3018494c5.411232 0 9.968334 -0.78232574 13.671307 -2.3469772c3.7131958 -1.5746841 6.464859 -3.7010117 8.254955 -6.378975c1.7900963 -2.6879883 2.6851616 -5.666851 2.6851616 -8.936577c0 -3.9417229 -1.0382538 -7.0660133 -3.114788 -9.372875c-2.0765343 -2.3168907 -4.6082573 -4.0420227 -7.595169 -5.175392c-2.976696 -1.1434021 -6.8842354 -2.3018494 -11.722649 -3.475338c-4.0916634 -0.9829216 -7.3496704 -1.8906212 -9.773989 -2.7230988c-2.4140968 -0.83247375 -4.4241314 -2.0310402 -6.0301037 -3.5956955c-1.5957546 -1.5746841 -2.393631 -3.6558704 -2.393631 -6.2435665c0 -3.4502602 1.4576588 -6.2686424 4.372978 -8.455147c2.925537 -2.1965332 7.2780457 -3.2947998 13.057556 -3.2947998c3.017601 0 6.096573 0.45134354 9.236954 1.3540268c3.1506004 0.8926544 6.106827 2.231636 8.868706 4.016947l2.3629417 -5.461241c-2.6391296 -1.7853098 -5.7692604 -3.1844711 -9.390392 -4.197485c-3.6109123 -1.0230427 -7.3036385 -1.534564 -11.078209 -1.534564z" fill-rule="evenodd"/><path fill="#ffffff" d="m74.28367 12.021222l0 64.70744l6.981415 0l0 -29.86382l41.290115 0l0 29.86382l6.889351 0l0 -64.70744l-6.889351 0l0 28.840778l-41.290115 0l0 -28.840778z" fill-rule="evenodd"/><path fill="#ffffff" d="m179.77321 17.572733c5.2168884 0 9.932541 1.1584454 14.146973 3.475336c4.214432 2.30686 7.513336 5.5113907 9.8967285 9.613592c2.393631 4.092169 3.590454 8.665773 3.590454 13.720808c0 5.045002 -1.1968231 9.618607 -3.590454 13.720806c-2.3833923 4.1021957 -5.6822968 7.3067284 -9.8967285 9.61359c-4.214432 2.3068619 -8.930084 3.460289 -14.146973 3.460289c-5.20665 0 -9.932526 -1.1534271 -14.177643 -3.460289c-4.245117 -2.3068619 -7.579834 -5.5113945 -10.00415 -9.61359c-2.4140778 -4.1021996 -3.6211243 -8.6758 -3.6211243 -13.720806c0 -5.0550346 1.2070465 -9.628639 3.6211243 -13.720808c2.4243164 -4.1022015 5.759033 -7.306732 10.00415 -9.613592c4.245117 -2.3168907 8.970993 -3.475336 14.177643 -3.475336zm0 -6.1081667c-6.5262146 0 -12.448914 1.434267 -17.768097 4.3027973c-5.3089447 2.8685312 -9.456879 6.8002253 -12.443802 11.795079c-2.9869232 4.984825 -4.480377 10.591499 -4.480377 16.820026c0 6.2184944 1.493454 11.825169 4.480377 16.820023c2.9869232 4.984825 7.134857 8.911507 12.443802 11.780037c5.3191833 2.8685303 11.241882 4.3027954 17.768097 4.3027954c6.5364532 0 12.428467 -1.4142075 17.67604 -4.2426147c5.2577972 -2.83844 9.390396 -6.7701416 12.397766 -11.795082c3.0176086 -5.0249443 4.526413 -10.646664 4.526413 -16.865158c0 -6.228527 -1.5088043 -11.850246 -4.526413 -16.86516c-3.00737 -5.0249443 -7.139969 -8.956638 -12.397766 -11.79508c-5.247574 -2.838441 -11.139587 -4.257663 -17.67604 -4.257663z" fill-rule="evenodd"/><path fill="#ffffff" d="m254.54059 17.933807c6.536438 0 11.533417 1.4041748 14.990875 4.212528c3.4574585 2.8083534 5.1861877 6.8303146 5.1861877 12.065884c0 5.1152153 -1.7287292 9.076996 -5.1861877 11.885349c-3.4574585 2.7983246 -8.454437 4.197483 -14.990875 4.197483l-17.537933 0l0 -32.361244zm-24.519363 -5.9125853l0 64.70744l6.98143 0l0 -20.430763l17.722061 0c8.418625 0 15.016434 -1.9558144 19.793472 -5.8674507c4.7770386 -3.9116325 7.165558 -9.317711 7.165558 -16.218235c0 -6.900522 -2.3885193 -12.321644 -7.165558 -16.263369c-4.7770386 -3.9517517 -11.374847 -5.9276285 -19.793472 -5.9276285z" fill-rule="evenodd"/><path fill="#ffffff" d="m342.01727 11.464566c-5.401001 0 -9.927429 0.80238724 -13.579254 2.4071598c-3.641571 1.6047716 -6.3420715 3.7461405 -8.101501 6.4241056c-1.7594299 2.6779652 -2.6391296 5.6518097 -2.6391296 8.921534c0 4.0019035 1.0535889 7.176342 3.1608276 9.523323c2.1072083 2.3369484 4.6338196 4.0771255 7.5798035 5.2205276c2.9562378 1.1433983 6.920044 2.3269196 11.891449 3.55056c4.1428223 0.99295044 7.375244 1.9056664 9.697266 2.738144c2.3322449 0.83247757 4.2962646 2.0210114 5.8919983 3.5656013c1.6059875 1.534565 2.408966 3.5956955 2.408966 6.1833916c0 3.3900833 -1.4781189 6.1482887 -4.434326 8.274609c-2.9460144 2.1263275 -7.375244 3.1894836 -13.28772 3.1894836c-4.204193 0 -8.2907715 -0.7221451 -12.259674 -2.1664429c-3.9587097 -1.4543228 -7.1297607 -3.3499603 -9.513153 -5.6869125l-2.7312012 5.265663c2.4447937 2.5275192 5.9124756 4.5635757 10.403076 6.108162c4.5008545 1.5345688 9.201172 2.3018494 14.100952 2.3018494c5.4112244 0 9.968323 -0.78232574 13.671295 -2.3469772c3.7131958 -1.5746841 6.4648438 -3.7010117 8.254974 -6.378975c1.7901001 -2.6879883 2.6851501 -5.666851 2.6851501 -8.936577c0 -3.9417229 -1.038269 -7.0660133 -3.1147766 -9.372875c-2.076538 -2.3168907 -4.608246 -4.0420227 -7.5951843 -5.175392c-2.9766846 -1.1434021 -6.884247 -2.3018494 -11.722656 -3.475338c-4.091675 -0.9829216 -7.3496704 -1.8906212 -9.773987 -2.7230988c-2.414093 -0.83247375 -4.424103 -2.0310402 -6.0300903 -3.5956955c-1.5957642 -1.5746841 -2.3936462 -3.6558704 -2.3936462 -6.2435665c0 -3.4502602 1.4576721 -6.2686424 4.372986 -8.455147c2.925537 -2.1965332 7.278076 -3.2947998 13.057556 -3.2947998c3.0176086 0 6.096588 0.45134354 9.236969 1.3540268c3.1505737 0.8926544 6.1068115 2.231636 8.868683 4.016947l2.3629456 -5.461241c-2.6391296 -1.7853098 -5.7692566 -3.1844711 -9.390381 -4.197485c-3.6109009 -1.0230427 -7.30365 -1.534564 -11.078217 -1.534564z" fill-rule="evenodd"/><path fill="#ffffff" d="m380.38528 12.021222l0 64.70744l6.981415 0l0 -29.86382l41.29013 0l0 29.86382l6.8893433 0l0 -64.70744l-6.8893433 0l0 28.840778l-41.29013 0l0 -28.840778z" fill-rule="evenodd"/><path fill="#ffffff" d="m485.87485 17.572733c5.2168884 0 9.932556 1.1584454 14.146973 3.475336c4.2144165 2.30686 7.513336 5.5113907 9.8967285 9.613592c2.3936462 4.092169 3.5904846 8.665773 3.5904846 13.720808c0 5.045002 -1.1968384 9.618607 -3.5904846 13.720806c-2.3833923 4.1021957 -5.682312 7.3067284 -9.8967285 9.61359c-4.2144165 2.3068619 -8.930084 3.460289 -14.146973 3.460289c-5.2066345 0 -9.932526 -1.1534271 -14.177643 -3.460289c-4.245117 -2.3068619 -7.579834 -5.5113945 -10.00415 -9.61359c-2.4140625 -4.1021996 -3.6211243 -8.6758 -3.6211243 -13.720806c0 -5.0550346 1.2070618 -9.628639 3.6211243 -13.720808c2.4243164 -4.1022015 5.759033 -7.306732 10.00415 -9.613592c4.245117 -2.3168907 8.971008 -3.475336 14.177643 -3.475336zm0 -6.1081667c-6.5262146 0 -12.448914 1.434267 -17.768097 4.3027973c-5.3089294 2.8685312 -9.456879 6.8002253 -12.443787 11.795079c-2.9869385 4.984825 -4.4804077 10.591499 -4.4804077 16.820026c0 6.2184944 1.4934692 11.825169 4.4804077 16.820023c2.986908 4.984825 7.134857 8.911507 12.443787 11.780037c5.3191833 2.8685303 11.241882 4.3027954 17.768097 4.3027954c6.5364685 0 12.428467 -1.4142075 17.676056 -4.2426147c5.257782 -2.83844 9.390381 -6.7701416 12.397766 -11.795082c3.0176392 -5.0249443 4.526428 -10.646664 4.526428 -16.865158c0 -6.228527 -1.5087891 -11.850246 -4.526428 -16.86516c-3.0073853 -5.0249443 -7.139984 -8.956638 -12.397766 -11.79508c-5.247589 -2.838441 -11.139587 -4.257663 -17.676056 -4.257663z" fill-rule="evenodd"/><path fill="#ffffff" d="m536.12286 12.021222l0 64.70744l46.67578 0l0 -5.9125824l-39.694397 0l0 -24.041504l34.124573 0l0 -5.822315l-34.124573 0l0 -23.01846l38.282776 0l0 -5.9125853z" fill-rule="evenodd"/><path fill="#ffffff" d="m618.8003 11.464566c-5.401001 0 -9.927429 0.80238724 -13.579224 2.4071598c-3.6416016 1.6047716 -6.342102 3.7461405 -8.1015625 6.4241056c-1.7593994 2.6779652 -2.6390991 5.6518097 -2.6390991 8.921534c0 4.0019035 1.0535889 7.176342 3.1608276 9.523323c2.1072388 2.3369484 4.633789 4.0771255 7.579834 5.2205276c2.9561768 1.1433983 6.920044 2.3269196 11.891418 3.55056c4.1428223 0.99295044 7.375244 1.9056664 9.697266 2.738144c2.3322754 0.83247757 4.2962646 2.0210114 5.892029 3.5656013c1.605957 1.534565 2.4089355 3.5956955 2.4089355 6.1833916c0 3.3900833 -1.4780884 6.1482887 -4.434326 8.274609c-2.946045 2.1263275 -7.375244 3.1894836 -13.28772 3.1894836c-4.2042236 0 -8.2907715 -0.7221451 -12.259705 -2.1664429c-3.9586792 -1.4543228 -7.1296997 -3.3499603 -9.513123 -5.6869125l-2.7312012 5.265663c2.4448242 2.5275192 5.9124756 4.5635757 10.403076 6.108162c4.5008545 1.5345688 9.201172 2.3018494 14.100952 2.3018494c5.411255 0 9.968323 -0.78232574 13.671326 -2.3469772c3.7131958 -1.5746841 6.4648438 -3.7010117 8.254944 -6.378975c1.7901001 -2.6879883 2.6851196 -5.666851 2.6851196 -8.936577c0 -3.9417229 -1.038208 -7.0660133 -3.114746 -9.372875c-2.076538 -2.3168907 -4.6082764 -4.0420227 -7.595154 -5.175392c-2.9767456 -1.1434021 -6.8842773 -2.3018494 -11.722656 -3.475338c-4.091675 -0.9829216 -7.3496704 -1.8906212 -9.773987 -2.7230988c-2.4141235 -0.83247375 -4.4241333 -2.0310402 -6.0301514 -3.5956955c-1.5957031 -1.5746841 -2.3936157 -3.6558704 -2.3936157 -6.2435665c0 -3.4502602 1.4576416 -6.2686424 4.372986 -8.455147c2.925537 -2.1965332 7.278076 -3.2947998 13.057556 -3.2947998c3.0175781 0 6.0965576 0.45134354 9.236938 1.3540268c3.1506348 0.8926544 6.1068726 2.231636 8.868713 4.016947l2.362976 -5.461241c-2.6391602 -1.7853098 -5.769287 -3.1844711 -9.390442 -4.197485c-3.6109009 -1.0230427 -7.303589 -1.534564 -11.078186 -1.534564z" fill-rule="evenodd"/><path stroke="#ffffff" stroke-width="1.0" stroke-linejoin="round" stroke-linecap="butt" d="m35.915646 11.464566c-5.4010105 0 -9.927425 0.80238724 -13.579245 2.4071598c-3.6416016 1.6047716 -6.342106 3.7461405 -8.101516 6.4241056c-1.7594109 2.6779652 -2.6391306 5.6518097 -2.6391306 8.921534c0 4.0019035 1.0535965 7.176342 3.160819 9.523323c2.1072226 2.3369484 4.6338205 4.0771255 7.5798273 5.2205276c2.9562244 1.1433983 6.920044 2.3269196 11.891428 3.55056c4.1428223 0.99295044 7.3752327 1.9056664 9.697269 2.738144c2.3322525 0.83247757 4.296257 2.0210114 5.8920097 3.5656013c1.6059723 1.534565 2.4089737 3.5956955 2.4089737 6.1833916c0 3.3900833 -1.4781265 6.1482887 -4.434353 8.274609c-2.946003 2.1263275 -7.3752327 3.1894836 -13.287712 3.1894836c-4.204195 0 -8.290766 -0.7221451 -12.25968 -2.1664429c-3.9586945 -1.4543228 -7.129732 -3.3499603 -9.513143 -5.6869125l-2.7311926 5.265663c2.444785 2.5275192 5.9124794 4.5635757 10.403082 6.108162c4.5008526 1.5345688 9.201174 2.3018494 14.100933 2.3018494c5.411232 0 9.968334 -0.78232574 13.671307 -2.3469772c3.7131958 -1.5746841 6.464859 -3.7010117 8.254955 -6.378975c1.7900963 -2.6879883 2.6851616 -5.666851 2.6851616 -8.936577c0 -3.9417229 -1.0382538 -7.0660133 -3.114788 -9.372875c-2.0765343 -2.3168907 -4.6082573 -4.0420227 -7.595169 -5.175392c-2.976696 -1.1434021 -6.8842354 -2.3018494 -11.722649 -3.475338c-4.0916634 -0.9829216 -7.3496704 -1.8906212 -9.773989 -2.7230988c-2.4140968 -0.83247375 -4.4241314 -2.0310402 -6.0301037 -3.5956955c-1.5957546 -1.5746841 -2.393631 -3.6558704 -2.393631 -6.2435665c0 -3.4502602 1.4576588 -6.2686424 4.372978 -8.455147c2.925537 -2.1965332 7.2780457 -3.2947998 13.057556 -3.2947998c3.017601 0 6.096573 0.45134354 9.236954 1.3540268c3.1506004 0.8926544 6.106827 2.231636 8.868706 4.016947l2.3629417 -5.461241c-2.6391296 -1.7853098 -5.7692604 -3.1844711 -9.390392 -4.197485c-3.6109123 -1.0230427 -7.3036385 -1.534564 -11.078209 -1.534564z" fill-rule="evenodd"/><path stroke="#ffffff" stroke-width="1.0" stroke-linejoin="round" stroke-linecap="butt" d="m74.28367 12.021222l0 64.70744l6.981415 0l0 -29.86382l41.290115 0l0 29.86382l6.889351 0l0 -64.70744l-6.889351 0l0 28.840778l-41.290115 0l0 -28.840778z" fill-rule="evenodd"/><path stroke="#ffffff" stroke-width="1.0" stroke-linejoin="round" stroke-linecap="butt" d="m179.77321 17.572733c5.2168884 0 9.932541 1.1584454 14.146973 3.475336c4.214432 2.30686 7.513336 5.5113907 9.8967285 9.613592c2.393631 4.092169 3.590454 8.665773 3.590454 13.720808c0 5.045002 -1.1968231 9.618607 -3.590454 13.720806c-2.3833923 4.1021957 -5.6822968 7.3067284 -9.8967285 9.61359c-4.214432 2.3068619 -8.930084 3.460289 -14.146973 3.460289c-5.20665 0 -9.932526 -1.1534271 -14.177643 -3.460289c-4.245117 -2.3068619 -7.579834 -5.5113945 -10.00415 -9.61359c-2.4140778 -4.1021996 -3.6211243 -8.6758 -3.6211243 -13.720806c0 -5.0550346 1.2070465 -9.628639 3.6211243 -13.720808c2.4243164 -4.1022015 5.759033 -7.306732 10.00415 -9.613592c4.245117 -2.3168907 8.970993 -3.475336 14.177643 -3.475336zm0 -6.1081667c-6.5262146 0 -12.448914 1.434267 -17.768097 4.3027973c-5.3089447 2.8685312 -9.456879 6.8002253 -12.443802 11.795079c-2.9869232 4.984825 -4.480377 10.591499 -4.480377 16.820026c0 6.2184944 1.493454 11.825169 4.480377 16.820023c2.9869232 4.984825 7.134857 8.911507 12.443802 11.780037c5.3191833 2.8685303 11.241882 4.3027954 17.768097 4.3027954c6.5364532 0 12.428467 -1.4142075 17.67604 -4.2426147c5.2577972 -2.83844 9.390396 -6.7701416 12.397766 -11.795082c3.0176086 -5.0249443 4.526413 -10.646664 4.526413 -16.865158c0 -6.228527 -1.5088043 -11.850246 -4.526413 -16.86516c-3.00737 -5.0249443 -7.139969 -8.956638 -12.397766 -11.79508c-5.247574 -2.838441 -11.139587 -4.257663 -17.67604 -4.257663z" fill-rule="evenodd"/><path stroke="#ffffff" stroke-width="1.0" stroke-linejoin="round" stroke-linecap="butt" d="m254.54059 17.933807c6.536438 0 11.533417 1.4041748 14.990875 4.212528c3.4574585 2.8083534 5.1861877 6.8303146 5.1861877 12.065884c0 5.1152153 -1.7287292 9.076996 -5.1861877 11.885349c-3.4574585 2.7983246 -8.454437 4.197483 -14.990875 4.197483l-17.537933 0l0 -32.361244zm-24.519363 -5.9125853l0 64.70744l6.98143 0l0 -20.430763l17.722061 0c8.418625 0 15.016434 -1.9558144 19.793472 -5.8674507c4.7770386 -3.9116325 7.165558 -9.317711 7.165558 -16.218235c0 -6.900522 -2.3885193 -12.321644 -7.165558 -16.263369c-4.7770386 -3.9517517 -11.374847 -5.9276285 -19.793472 -5.9276285z" fill-rule="evenodd"/><path stroke="#ffffff" stroke-width="1.0" stroke-linejoin="round" stroke-linecap="butt" d="m342.01727 11.464566c-5.401001 0 -9.927429 0.80238724 -13.579254 2.4071598c-3.641571 1.6047716 -6.3420715 3.7461405 -8.101501 6.4241056c-1.7594299 2.6779652 -2.6391296 5.6518097 -2.6391296 8.921534c0 4.0019035 1.0535889 7.176342 3.1608276 9.523323c2.1072083 2.3369484 4.6338196 4.0771255 7.5798035 5.2205276c2.9562378 1.1433983 6.920044 2.3269196 11.891449 3.55056c4.1428223 0.99295044 7.375244 1.9056664 9.697266 2.738144c2.3322449 0.83247757 4.2962646 2.0210114 5.8919983 3.5656013c1.6059875 1.534565 2.408966 3.5956955 2.408966 6.1833916c0 3.3900833 -1.4781189 6.1482887 -4.434326 8.274609c-2.9460144 2.1263275 -7.375244 3.1894836 -13.28772 3.1894836c-4.204193 0 -8.2907715 -0.7221451 -12.259674 -2.1664429c-3.9587097 -1.4543228 -7.1297607 -3.3499603 -9.513153 -5.6869125l-2.7312012 5.265663c2.4447937 2.5275192 5.9124756 4.5635757 10.403076 6.108162c4.5008545 1.5345688 9.201172 2.3018494 14.100952 2.3018494c5.4112244 0 9.968323 -0.78232574 13.671295 -2.3469772c3.7131958 -1.5746841 6.4648438 -3.7010117 8.254974 -6.378975c1.7901001 -2.6879883 2.6851501 -5.666851 2.6851501 -8.936577c0 -3.9417229 -1.038269 -7.0660133 -3.1147766 -9.372875c-2.076538 -2.3168907 -4.608246 -4.0420227 -7.5951843 -5.175392c-2.9766846 -1.1434021 -6.884247 -2.3018494 -11.722656 -3.475338c-4.091675 -0.9829216 -7.3496704 -1.8906212 -9.773987 -2.7230988c-2.414093 -0.83247375 -4.424103 -2.0310402 -6.0300903 -3.5956955c-1.5957642 -1.5746841 -2.3936462 -3.6558704 -2.3936462 -6.2435665c0 -3.4502602 1.4576721 -6.2686424 4.372986 -8.455147c2.925537 -2.1965332 7.278076 -3.2947998 13.057556 -3.2947998c3.0176086 0 6.096588 0.45134354 9.236969 1.3540268c3.1505737 0.8926544 6.1068115 2.231636 8.868683 4.016947l2.3629456 -5.461241c-2.6391296 -1.7853098 -5.7692566 -3.1844711 -9.390381 -4.197485c-3.6109009 -1.0230427 -7.30365 -1.534564 -11.078217 -1.534564z" fill-rule="evenodd"/><path stroke="#ffffff" stroke-width="1.0" stroke-linejoin="round" stroke-linecap="butt" d="m380.38528 12.021222l0 64.70744l6.981415 0l0 -29.86382l41.29013 0l0 29.86382l6.8893433 0l0 -64.70744l-6.8893433 0l0 28.840778l-41.29013 0l0 -28.840778z" fill-rule="evenodd"/><path stroke="#ffffff" stroke-width="1.0" stroke-linejoin="round" stroke-linecap="butt" d="m485.87485 17.572733c5.2168884 0 9.932556 1.1584454 14.146973 3.475336c4.2144165 2.30686 7.513336 5.5113907 9.8967285 9.613592c2.3936462 4.092169 3.5904846 8.665773 3.5904846 13.720808c0 5.045002 -1.1968384 9.618607 -3.5904846 13.720806c-2.3833923 4.1021957 -5.682312 7.3067284 -9.8967285 9.61359c-4.2144165 2.3068619 -8.930084 3.460289 -14.146973 3.460289c-5.2066345 0 -9.932526 -1.1534271 -14.177643 -3.460289c-4.245117 -2.3068619 -7.579834 -5.5113945 -10.00415 -9.61359c-2.4140625 -4.1021996 -3.6211243 -8.6758 -3.6211243 -13.720806c0 -5.0550346 1.2070618 -9.628639 3.6211243 -13.720808c2.4243164 -4.1022015 5.759033 -7.306732 10.00415 -9.613592c4.245117 -2.3168907 8.971008 -3.475336 14.177643 -3.475336zm0 -6.1081667c-6.5262146 0 -12.448914 1.434267 -17.768097 4.3027973c-5.3089294 2.8685312 -9.456879 6.8002253 -12.443787 11.795079c-2.9869385 4.984825 -4.4804077 10.591499 -4.4804077 16.820026c0 6.2184944 1.4934692 11.825169 4.4804077 16.820023c2.986908 4.984825 7.134857 8.911507 12.443787 11.780037c5.3191833 2.8685303 11.241882 4.3027954 17.768097 4.3027954c6.5364685 0 12.428467 -1.4142075 17.676056 -4.2426147c5.257782 -2.83844 9.390381 -6.7701416 12.397766 -11.795082c3.0176392 -5.0249443 4.526428 -10.646664 4.526428 -16.865158c0 -6.228527 -1.5087891 -11.850246 -4.526428 -16.86516c-3.0073853 -5.0249443 -7.139984 -8.956638 -12.397766 -11.79508c-5.247589 -2.838441 -11.139587 -4.257663 -17.676056 -4.257663z" fill-rule="evenodd"/><path stroke="#ffffff" stroke-width="1.0" stroke-linejoin="round" stroke-linecap="butt" d="m536.12286 12.021222l0 64.70744l46.67578 0l0 -5.9125824l-39.694397 0l0 -24.041504l34.124573 0l0 -5.822315l-34.124573 0l0 -23.01846l38.282776 0l0 -5.9125853z" fill-rule="evenodd"/><path stroke="#ffffff" stroke-width="1.0" stroke-linejoin="round" stroke-linecap="butt" d="m618.8003 11.464566c-5.401001 0 -9.927429 0.80238724 -13.579224 2.4071598c-3.6416016 1.6047716 -6.342102 3.7461405 -8.1015625 6.4241056c-1.7593994 2.6779652 -2.6390991 5.6518097 -2.6390991 8.921534c0 4.0019035 1.0535889 7.176342 3.1608276 9.523323c2.1072388 2.3369484 4.633789 4.0771255 7.579834 5.2205276c2.9561768 1.1433983 6.920044 2.3269196 11.891418 3.55056c4.1428223 0.99295044 7.375244 1.9056664 9.697266 2.738144c2.3322754 0.83247757 4.2962646 2.0210114 5.892029 3.5656013c1.605957 1.534565 2.4089355 3.5956955 2.4089355 6.1833916c0 3.3900833 -1.4780884 6.1482887 -4.434326 8.274609c-2.946045 2.1263275 -7.375244 3.1894836 -13.28772 3.1894836c-4.2042236 0 -8.2907715 -0.7221451 -12.259705 -2.1664429c-3.9586792 -1.4543228 -7.1296997 -3.3499603 -9.513123 -5.6869125l-2.7312012 5.265663c2.4448242 2.5275192 5.9124756 4.5635757 10.403076 6.108162c4.5008545 1.5345688 9.201172 2.3018494 14.100952 2.3018494c5.411255 0 9.968323 -0.78232574 13.671326 -2.3469772c3.7131958 -1.5746841 6.4648438 -3.7010117 8.254944 -6.378975c1.7901001 -2.6879883 2.6851196 -5.666851 2.6851196 -8.936577c0 -3.9417229 -1.038208 -7.0660133 -3.114746 -9.372875c-2.076538 -2.3168907 -4.6082764 -4.0420227 -7.595154 -5.175392c-2.9767456 -1.1434021 -6.8842773 -2.3018494 -11.722656 -3.475338c-4.091675 -0.9829216 -7.3496704 -1.8906212 -9.773987 -2.7230988c-2.4141235 -0.83247375 -4.4241333 -2.0310402 -6.0301514 -3.5956955c-1.5957031 -1.5746841 -2.3936157 -3.6558704 -2.3936157 -6.2435665c0 -3.4502602 1.4576416 -6.2686424 4.372986 -8.455147c2.925537 -2.1965332 7.278076 -3.2947998 13.057556 -3.2947998c3.0175781 0 6.0965576 0.45134354 9.236938 1.3540268c3.1506348 0.8926544 6.1068726 2.231636 8.868713 4.016947l2.362976 -5.461241c-2.6391602 -1.7853098 -5.769287 -3.1844711 -9.390442 -4.197485c-3.6109009 -1.0230427 -7.303589 -1.534564 -11.078186 -1.534564z" fill-rule="evenodd"/></g></svg>